<svg xmlns="http://www.w3.org/2000/svg" version="1.1" xmlns:xlink="http://www.w3.org/1999/xlink" xmlns:svgjs="http://svgjs.dev/svgjs" width="2000" height="934" viewBox="0 0 2000 934"><g transform="matrix(1,0,0,1,-1.2121212121212466,-1.0703135135136108)"><svg viewBox="0 0 396 185" data-background-color="#ffffff" preserveAspectRatio="xMidYMid meet" height="934" width="2000" xmlns="http://www.w3.org/2000/svg" xmlns:xlink="http://www.w3.org/1999/xlink"><g id="tight-bounds" transform="matrix(1,0,0,1,0.2400000000000091,0.2120000000000175)"><svg viewBox="0 0 395.52 184.57599999999996" height="184.57599999999996" width="395.52"><g><svg viewBox="0 0 395.52 184.57599999999996" height="184.57599999999996" width="395.52"><g><svg viewBox="0 0 395.52 184.57599999999996" height="184.57599999999996" width="395.52"><g id="textblocktransform"><svg viewBox="0 0 395.52 184.57599999999996" height="184.57599999999996" width="395.52" id="textblock"><g><svg viewBox="0 0 395.52 184.57599999999996" height="184.57599999999996" width="395.52"><g transform="matrix(1,0,0,1,0,0)"><svg width="395.52" viewBox="0 -50 93.75 43.75" height="184.57599999999996" data-palette-color="#c10000"><path d="M37.5-6.25L0-6.25 0-50 37.5-50 37.5-43.75 43.75-43.75 43.75-31.25 37.5-31.25 37.5-25 43.75-25 43.75-12.5 37.5-12.5 37.5-6.25ZM12.5-43.75L12.5-31.25 31.25-31.25 31.25-43.75 12.5-43.75ZM12.5-25L12.5-12.5 31.25-12.5 31.25-25 12.5-25ZM62.5-6.25L50-6.25 50-50 62.5-50 62.5-43.75 68.75-43.75 68.75-37.5 75-37.5 75-43.75 81.25-43.75 81.25-50 93.75-50 93.75-6.25 81.25-6.25 81.25-31.25 75-31.25 75-18.75 68.75-18.75 68.75-31.25 62.5-31.25 62.5-6.25Z" opacity="1" transform="matrix(1,0,0,1,0,0)" fill="#c10000" class="wordmark-text-0" data-fill-palette-color="primary" id="text-0"></path></svg></g></svg></g></svg></g></svg></g><g></g></svg></g><defs></defs></svg><rect width="395.52" height="184.57599999999996" fill="none" stroke="none" visibility="hidden"></rect></g></svg></g></svg>